<?xml version="1.0" encoding="UTF-8"?>
<svg width="12px" height="12px" viewBox="0 0 12 12" version="1.1" xmlns="http://www.w3.org/2000/svg" xmlns:xlink="http://www.w3.org/1999/xlink">
    <!-- Generator: Sketch 43.2 (39069) - http://www.bohemiancoding.com/sketch -->
    <title>github-square-brands</title>
    <desc>Created with Sketch.</desc>
    <defs></defs>
    <g id="Layout" stroke="none" stroke-width="1" fill="inherit" fill-rule="evenodd">
        <g id="iPhone-SE-(About)" transform="translate(-183.000000, -178.000000)" fill-rule="nonzero" fill="inherit">
            <g id="Contact-Icons" transform="translate(125.000000, 178.000000)">
                <g id="github-square-brands" transform="translate(58.000000, 0.000000)">
                    <path d="M10.7142857,0 L1.28571429,0 C0.575892857,0 0,0.575892857 0,1.28571429 L0,10.7142857 C0,11.4241071 0.575892857,12 1.28571429,12 L10.7142857,12 C11.4241071,12 12,11.4241071 12,10.7142857 L12,1.28571429 C12,0.575892857 11.4241071,0 10.7142857,0 Z M7.42767857,10.2776786 C7.20267857,10.3178571 7.11964286,10.1785714 7.11964286,10.0633929 C7.11964286,9.91875 7.125,9.17946429 7.125,8.58214286 C7.125,8.16428571 6.98571429,7.89910714 6.82232143,7.75982143 C7.81339286,7.65 8.85803571,7.51339286 8.85803571,5.80178571 C8.85803571,5.31428571 8.68392857,5.07053571 8.4,4.75714286 C8.44553571,4.64196429 8.59821429,4.16785714 8.35446429,3.55178571 C7.98214286,3.43660714 7.13035714,4.03125 7.13035714,4.03125 C6.77678571,3.93214286 6.39375,3.88125 6.01607143,3.88125 C5.63839286,3.88125 5.25535714,3.93214286 4.90178571,4.03125 C4.90178571,4.03125 4.05,3.43660714 3.67767857,3.55178571 C3.43392857,4.16517857 3.58392857,4.63928571 3.63214286,4.75714286 C3.34821429,5.07053571 3.21428571,5.31428571 3.21428571,5.80178571 C3.21428571,7.50535714 4.21339286,7.65 5.20446429,7.75982143 C5.07589286,7.875 4.96071429,8.07321429 4.92053571,8.35714286 C4.66607143,8.47232143 4.01517857,8.67053571 3.62678571,7.98482143 C3.38303571,7.56160714 2.94375,7.52678571 2.94375,7.52678571 C2.50982143,7.52142857 2.91428571,7.8 2.91428571,7.8 C3.20357143,7.93392857 3.40714286,8.44821429 3.40714286,8.44821429 C3.66696429,9.24375 4.90982143,8.97589286 4.90982143,8.97589286 C4.90982143,9.34821429 4.91517857,9.95357143 4.91517857,10.0633929 C4.91517857,10.1785714 4.83482143,10.3178571 4.60714286,10.2776786 C2.83928571,9.68571429 1.60178571,8.00357143 1.60178571,6.0375 C1.60178571,3.57857143 3.48214286,1.71160714 5.94107143,1.71160714 C8.4,1.71160714 10.3928571,3.57857143 10.3928571,6.0375 C10.3955357,8.00357143 9.19553571,9.68839286 7.42767857,10.2776786 Z M4.8,8.64107143 C4.74910714,8.65178571 4.70089286,8.63035714 4.69553571,8.59553571 C4.69017857,8.55535714 4.725,8.52053571 4.77589286,8.50982143 C4.82678571,8.50446429 4.875,8.52589286 4.88035714,8.56071429 C4.88839286,8.59553571 4.85357143,8.63035714 4.8,8.64107143 Z M4.54553571,8.61696429 C4.54553571,8.65178571 4.50535714,8.68125 4.45178571,8.68125 C4.39285714,8.68660714 4.35267857,8.65714286 4.35267857,8.61696429 C4.35267857,8.58214286 4.39285714,8.55267857 4.44642857,8.55267857 C4.49732143,8.54732143 4.54553571,8.57678571 4.54553571,8.61696429 Z M4.17857143,8.5875 C4.16785714,8.62232143 4.11428571,8.63839286 4.06875,8.62232143 C4.01785714,8.61160714 3.98303571,8.57142857 3.99375,8.53660714 C4.00446429,8.50178571 4.05803571,8.48571429 4.10357143,8.49642857 C4.15714286,8.5125 4.19196429,8.55267857 4.17857143,8.5875 Z M3.84910714,8.44285714 C3.825,8.47232143 3.77410714,8.46696429 3.73392857,8.42678571 C3.69375,8.39196429 3.68303571,8.34107143 3.70982143,8.31696429 C3.73392857,8.2875 3.78482143,8.29285714 3.825,8.33303571 C3.85982143,8.36785714 3.87321429,8.42142857 3.84910714,8.44285714 Z M3.60535714,8.19910714 C3.58125,8.21517857 3.53571429,8.19910714 3.50625,8.15892857 C3.47678571,8.11875 3.47678571,8.07321429 3.50625,8.05446429 C3.53571429,8.03035714 3.58125,8.04910714 3.60535714,8.08928571 C3.63482143,8.12946429 3.63482143,8.17767857 3.60535714,8.19910714 L3.60535714,8.19910714 Z M3.43125,7.93928571 C3.40714286,7.96339286 3.36696429,7.95 3.3375,7.92321429 C3.30803571,7.88839286 3.30267857,7.84821429 3.32678571,7.82946429 C3.35089286,7.80535714 3.39107143,7.81875 3.42053571,7.84553571 C3.45,7.88035714 3.45535714,7.92053571 3.43125,7.93928571 Z M3.25178571,7.74231862 C3.24107143,7.76681927 3.20625,7.77226386 3.17678571,7.7532078 C3.14196429,7.73687403 3.12589286,7.70692878 3.13660714,7.68242813 C3.14732143,7.66609436 3.17678571,7.65792747 3.21160714,7.67153895 C3.24642857,7.69059501 3.2625,7.72054026 3.25178571,7.74231862 Z" id="Shape"></path>
                </g>
            </g>
        </g>
    </g>
</svg>