<?xml version="1.0" encoding="UTF-8"?>
<svg width="12px" height="12px" viewBox="0 0 12 12" version="1.1" xmlns="http://www.w3.org/2000/svg" xmlns:xlink="http://www.w3.org/1999/xlink">
    <!-- Generator: Sketch 43.2 (39069) - http://www.bohemiancoding.com/sketch -->
    <title>linkedin-brands</title>
    <desc>Created with Sketch.</desc>
    <defs></defs>
    <g id="Layout" stroke="none" stroke-width="1" fill="inherit" fill-rule="evenodd">
        <g id="iPhone-SE-(About)" transform="translate(-165.000000, -178.000000)" fill-rule="nonzero" fill="inheirt">
            <g id="Contact-Icons" transform="translate(125.000000, 178.000000)">
                <g id="linkedin-brands" transform="translate(40.000000, 0.000000)">
                    <path d="M11.1428571,0 L0.854464286,0 C0.383035714,0 0,0.388392857 0,0.865178571 L0,11.1348214 C0,11.6116071 0.383035714,12 0.854464286,12 L11.1428571,12 C11.6142857,12 12,11.6116071 12,11.1348214 L12,0.865178571 C12,0.388392857 11.6142857,0 11.1428571,0 Z M3.62678571,10.2857143 L1.84821429,10.2857143 L1.84821429,4.55892857 L3.62946429,4.55892857 L3.62946429,10.2857143 L3.62678571,10.2857143 Z M2.7375,3.77678571 C2.16696429,3.77678571 1.70625,3.31339286 1.70625,2.74553571 C1.70625,2.17767857 2.16696429,1.71428571 2.7375,1.71428571 C3.30535714,1.71428571 3.76875,2.17767857 3.76875,2.74553571 C3.76875,3.31607143 3.30803571,3.77678571 2.7375,3.77678571 L2.7375,3.77678571 Z M10.29375,10.2857143 L8.51517857,10.2857143 L8.51517857,7.5 C8.51517857,6.83571429 8.50178571,5.98125 7.59107143,5.98125 C6.66428571,5.98125 6.52232143,6.70446429 6.52232143,7.45178571 L6.52232143,10.2857143 L4.74375,10.2857143 L4.74375,4.55892857 L6.45,4.55892857 L6.45,5.34107143 L6.47410714,5.34107143 C6.7125,4.89107143 7.29375,4.41696429 8.15892857,4.41696429 C9.95892857,4.41696429 10.29375,5.60357143 10.29375,7.14642857 L10.29375,10.2857143 L10.29375,10.2857143 Z" id="Shape"></path>
                </g>
            </g>
        </g>
    </g>
</svg>