<?xml version="1.0" encoding="UTF-8"?>
<svg width="12px" height="12px" viewBox="0 0 12 12" version="1.1" xmlns="http://www.w3.org/2000/svg" xmlns:xlink="http://www.w3.org/1999/xlink">
    <!-- Generator: Sketch 43.2 (39069) - http://www.bohemiancoding.com/sketch -->
    <title>instagram-square-brands</title>
    <desc>Created with Sketch.</desc>
    <defs></defs>
    <g id="Layout" stroke="none" stroke-width="1" fill="inherit" fill-rule="evenodd">
        <g id="iPhone-SE-(About)" transform="translate(-125.000000, -178.000000)" fill-rule="nonzero" fill="inherit">
            <g id="Contact-Icons" transform="translate(125.000000, 178.000000)">
                <g id="instagram-square-brands">
                    <path d="M6,4.57125 C5.21099297,4.57154584 4.57158855,5.21134995 4.57178576,6.00035701 C4.57198297,6.78936407 5.21170714,7.42884847 6.00071422,7.42874989 C6.7897213,7.42865131 7.42928566,6.78900709 7.42928571,6 C7.42869451,5.21095901 6.78904116,4.57154541 6,4.57125 L6,4.57125 Z M9.34044643,3.47303571 C9.19342453,3.10044613 8.89848244,2.80550405 8.52589286,2.65848214 C7.96339286,2.43642857 6.62410714,2.48625 6,2.48625 C5.37589286,2.48625 4.03794643,2.43455357 3.47383929,2.65848214 C3.10124971,2.80550405 2.80630762,3.10044613 2.65928571,3.47303571 C2.4375,4.03553571 2.48705357,5.37616071 2.48705357,5.99973214 C2.48705357,6.62330357 2.4375,7.96232143 2.66035714,8.52669643 C2.80737905,8.89928601 3.10232113,9.1942281 3.47491071,9.34125 C4.03741071,9.56330357 5.37669643,9.51348214 6.00107143,9.51348214 C6.62544643,9.51348214 7.96285714,9.56517857 8.52696429,9.34125 C8.89955387,9.1942281 9.19449595,8.89928601 9.34151786,8.52669643 C9.56517857,7.96419643 9.51375,6.62357143 9.51375,6 C9.51375,5.37642857 9.56517857,4.03767857 9.34151786,3.47330357 L9.34044643,3.47303571 Z M6,8.19642857 C4.786946,8.19642857 3.80357143,7.213054 3.80357143,6 C3.80357143,4.786946 4.786946,3.80357143 6,3.80357143 C7.213054,3.80357143 8.19642857,4.786946 8.19642857,6 C8.19714054,6.58274705 7.96596041,7.14183101 7.55389571,7.55389571 C7.14183101,7.96596041 6.58274705,8.19714054 6,8.19642857 L6,8.19642857 Z M8.28696429,4.22410714 C8.07958082,4.22421549 7.89255742,4.09937409 7.81312011,3.90780784 C7.73368281,3.71624159 7.77747927,3.49568547 7.92408322,3.34900489 C8.07068717,3.2023243 8.29122037,3.15841258 8.48282811,3.23774976 C8.67443585,3.31708694 8.79937497,3.50404508 8.799375,3.71142857 C8.7999447,3.84743971 8.74633178,3.97807947 8.65038298,4.07448062 C8.55443418,4.17088178 8.42404803,4.22510855 8.28803571,4.22517857 L8.28696429,4.22410714 Z M10.7142857,-6.91510341e-15 L1.28571429,-6.91510341e-15 C0.575633893,-7.10542736e-15 8.6959768e-17,0.575633893 0,1.28571429 L0,10.7142857 C8.6959768e-17,11.4243661 0.575633893,12 1.28571429,12 L10.7142857,12 C11.4243661,12 12,11.4243661 12,10.7142857 L12,1.28571429 C12,0.575633893 11.4243661,-7.10542736e-15 10.7142857,-7.10542736e-15 L10.7142857,-6.91510341e-15 Z M10.2557143,7.76785714 C10.2211607,8.454375 10.0644643,9.06267857 9.56330357,9.5625 C9.06214286,10.0623214 8.454375,10.2222321 7.76866071,10.2549107 C7.06125,10.2948214 4.94035714,10.2948214 4.23294643,10.2549107 C3.54642857,10.2203571 2.94026786,10.0633929 2.43830357,9.5625 C1.93633929,9.06160714 1.77857143,8.45303571 1.74589286,7.76785714 C1.70598214,7.06017857 1.70598214,4.93901786 1.74589286,4.23214286 C1.78044643,3.545625 1.93526786,2.93732143 2.43830357,2.4375 C2.94133929,1.93767857 3.54910714,1.77964286 4.23294643,1.74696429 C4.94035714,1.70705357 7.06125,1.70705357 7.76866071,1.74696429 C8.45517857,1.78151786 9.06321429,1.93848214 9.56330357,2.439375 C10.0633929,2.94026786 10.2230357,3.54883929 10.2557143,4.23535714 C10.295625,4.94035714 10.295625,7.05964286 10.2557143,7.76785714 Z" id="Shape"></path>
                </g>
            </g>
        </g>
    </g>
</svg>