<svg width="100" height="100" viewBox="0 0 100 100" fill="none" xmlns="http://www.w3.org/2000/svg">
<path d="M23.3332 13.3333C22.4803 13.3333 21.6264 13.6582 20.9764 14.3099L14.3098 20.9766C13.0064 22.2799 13.0064 24.3901 14.3098 25.6901L38.6197 50L14.3098 74.3099C13.0064 75.6132 13.0064 77.7234 14.3098 79.0234L20.9764 85.6901C22.2798 86.9934 24.39 86.9934 25.69 85.6901L49.9999 61.3802L74.3098 85.6901C75.6098 86.9934 77.7233 86.9934 79.0233 85.6901L85.69 79.0234C86.9933 77.7201 86.9933 75.6099 85.69 74.3099L61.3801 50L85.69 25.6901C86.9933 24.3901 86.9933 22.2766 85.69 20.9766L79.0233 14.3099C77.72 13.0066 75.6098 13.0066 74.3098 14.3099L49.9999 38.6198L25.69 14.3099C25.0383 13.6582 24.1861 13.3333 23.3332 13.3333Z" fill="white"/>
</svg>
