<?xml version="1.0" encoding="UTF-8"?>
<svg width="16px" height="7px" viewBox="0 0 16 7" version="1.1" xmlns="http://www.w3.org/2000/svg" xmlns:xlink="http://www.w3.org/1999/xlink">
    <!-- Generator: Sketch 43.2 (39069) - http://www.bohemiancoding.com/sketch -->
    <title>soundcloud-brands</title>
    <desc>Created with Sketch.</desc>
    <defs></defs>
    <g id="Layout" stroke="none" stroke-width="1" fill="inherit" fill-rule="evenodd">
        <g id="iPhone-SE-(About)" transform="translate(-143.000000, -181.000000)" fill-rule="nonzero" fill="inherit">
            <g id="Contact-Icons" transform="translate(125.000000, 178.000000)">
                <g id="soundcloud-brands" transform="translate(18.000000, 3.000000)">
                    <path d="M2.785,3.46788919 L2.93,5.08607152 L2.785,6.78640771 C2.7775,6.84864549 2.73,6.89594621 2.675,6.89594621 C2.62,6.89594621 2.57,6.84864549 2.57,6.78640771 L2.43,5.08607152 L2.57,3.46788919 C2.57,3.41311995 2.6175,3.36332972 2.675,3.36332972 C2.73,3.36332972 2.7775,3.41311995 2.785,3.46788919 Z M3.32,2.33267206 C3.25,2.33267206 3.2025,2.3874413 3.195,2.45714762 L3.07,5.08607152 L3.195,6.78640771 C3.2025,6.85611403 3.25,6.91088328 3.32,6.91088328 C3.3825,6.91088328 3.4375,6.85611403 3.4375,6.78640771 L3.5825,5.08607152 L3.4375,2.45714762 C3.4375,2.3874413 3.3825,2.33267206 3.32,2.33267206 Z M3.9575,1.73269984 C3.88,1.73269984 3.825,1.78746909 3.8175,1.86464394 L3.7075,5.10100859 L3.8175,6.78889722 C3.825,6.86607207 3.88,6.92084132 3.9575,6.92084132 C4.0275,6.92084132 4.09,6.86607207 4.09,6.78889722 L4.2225,5.10100859 L4.09,1.86464394 C4.09,1.78746909 4.0275,1.73269984 3.9575,1.73269984 Z M0.18,4.13756773 C0.145,4.13756773 0.125,4.16495235 0.1175,4.19980551 L0,5.08607152 L0.1175,5.95740046 C0.125,5.99225362 0.145,6.01963824 0.18,6.01963824 C0.215,6.01963824 0.235,5.99225362 0.2425,5.95740046 L0.3825,5.08607152 L0.2425,4.19980551 C0.235,4.16495235 0.215,4.13756773 0.18,4.13756773 L0.18,4.13756773 Z M0.77,3.59236476 C0.735,3.59236476 0.7075,3.61974938 0.7075,3.65460254 L0.5475,5.08607152 L0.7075,6.48268734 C0.7075,6.52500903 0.735,6.55239365 0.77,6.55239365 C0.805,6.55239365 0.8325,6.52500903 0.84,6.49015587 L1.02,5.08607152 L0.84,3.65460254 C0.8325,3.61974938 0.805,3.59236476 0.77,3.59236476 L0.77,3.59236476 Z M1.4025,3.30856047 C1.36,3.30856047 1.325,3.34341363 1.32,3.39071435 L1.175,5.08607152 L1.32,6.72416993 C1.3275,6.76649162 1.3625,6.80134478 1.4025,6.80134478 C1.445,6.80134478 1.48,6.76649162 1.48,6.72416993 L1.6525,5.08607152 L1.48,3.39071435 C1.48,3.34341363 1.445,3.30856047 1.4025,3.30856047 L1.4025,3.30856047 Z M2.035,3.25379123 C1.9875,3.25379123 1.945,3.28864438 1.945,3.34341363 L1.8,5.08607152 L1.945,6.77396016 C1.945,6.8287294 1.9875,6.86358256 2.035,6.86358256 C2.0825,6.86358256 2.125,6.8287294 2.1325,6.77396016 L2.2925,5.08607152 L2.1325,3.34341363 C2.125,3.28864438 2.0825,3.25379123 2.035,3.25379123 Z M8.07,0.492923231 C8.0425,0.473007141 8,0.458070073 7.965,0.458070073 C7.91,0.458070073 7.86,0.477986163 7.825,0.505370787 C7.7775,0.547692479 7.7475,0.60993026 7.7425,0.672168042 L7.7425,0.692084132 L7.66,5.09105054 L7.7025,5.9001417 L7.745,6.68931677 C7.7525,6.8063238 7.85,6.90341474 7.9675,6.90341474 C8.085,6.90341474 8.1825,6.8063238 8.1825,6.68931677 L8.28,5.09105054 L8.1825,0.672168042 C8.1725,0.597482704 8.1325,0.527776389 8.07,0.492923231 L8.07,0.492923231 Z M7.4025,0.873818455 C7.3675,0.853902364 7.3325,0.838965297 7.2925,0.838965297 C7.2525,0.838965297 7.215,0.853902364 7.1825,0.873818455 C7.1275,0.908671612 7.0925,0.970909394 7.0925,1.04061571 L7.085,1.0829374 L7.015,5.08607152 C7.015,5.08607152 7.015,5.09354005 7.0925,6.71919091 L7.0925,6.72665944 C7.0925,6.76898113 7.1075,6.80881331 7.135,6.84366647 C7.1775,6.89096719 7.2325,6.92084132 7.295,6.92084132 C7.35,6.92084132 7.4,6.8934567 7.435,6.85860354 C7.4775,6.82375038 7.4975,6.77644967 7.4975,6.71919091 L7.505,6.55239365 L7.5825,5.09354005 L7.5,1.04061571 C7.4925,0.970909394 7.4575,0.908671612 7.4025,0.873818455 L7.4025,0.873818455 Z M4.6175,1.43395849 C4.54,1.43395849 4.4725,1.50366481 4.4725,1.58581868 L4.3625,5.08607152 L4.4725,6.75902309 C4.48,6.84117696 4.5425,6.90341474 4.6175,6.90341474 C4.7,6.90341474 4.7625,6.84117696 4.77,6.75902309 L4.895,5.08607152 L4.77,1.58581868 C4.765,1.50366481 4.7025,1.43395849 4.6175,1.43395849 Z M14.035,2.99737157 C13.765,2.99737157 13.5075,3.05214081 13.27,3.14923175 C13.11,1.38665778 11.625,0.00248951127 9.8125,0.00248951127 C9.3675,0.00248951127 8.9375,0.0846433831 8.555,0.23650357 C8.4025,0.291272818 8.36,0.346042066 8.36,0.465538607 L8.36,6.68184824 C8.36,6.8063238 8.4575,6.89594621 8.575,6.91088328 L14.0325,6.91088328 C15.115,6.91088328 15.9975,6.03955433 15.9975,4.96159595 C16,3.87616904 15.1175,2.99737157 14.035,2.99737157 L14.035,2.99737157 Z M6.6175,1.49619627 C6.5125,1.49619627 6.43,1.57835014 6.4225,1.69037815 L6.34,5.09354005 L6.4225,6.72665944 C6.43,6.83121892 6.5125,6.91337279 6.6175,6.91337279 C6.7225,6.91337279 6.805,6.83121892 6.805,6.72665944 L6.9025,5.09354005 L6.805,1.69037815 C6.7975,1.57835014 6.7225,1.49619627 6.6175,1.49619627 Z M5.2775,1.30201439 C5.195,1.30201439 5.1175,1.37918924 5.1175,1.46881165 L5.02,5.08607152 L5.1175,6.75155456 C5.125,6.84117696 5.195,6.91088328 5.2775,6.91088328 C5.3675,6.91088328 5.4375,6.84117696 5.445,6.75155456 L5.555,5.08607152 L5.445,1.46881165 C5.4375,1.37918924 5.3675,1.30201439 5.2775,1.30201439 L5.2775,1.30201439 Z M5.945,1.38665778 C5.8475,1.38665778 5.7725,1.46383262 5.7725,1.55843405 L5.675,5.08607152 L5.7725,6.739107 C5.78,6.83619794 5.85,6.91088328 5.945,6.91088328 C6.04,6.91088328 6.1175,6.83370843 6.1175,6.739107 L6.2225,5.08607152 L6.1175,1.55843405 C6.1175,1.46134311 6.0425,1.38665778 5.945,1.38665778 L5.945,1.38665778 Z" id="Shape"></path>
                </g>
            </g>
        </g>
    </g>
</svg>