<?xml version="1.0" encoding="UTF-8"?>
<svg width="16px" height="16px" viewBox="0 0 16 16" version="1.1" xmlns="http://www.w3.org/2000/svg" xmlns:xlink="http://www.w3.org/1999/xlink">
    <!-- Generator: Sketch 43.2 (39069) - http://www.bohemiancoding.com/sketch -->
    <title>arrow-alt-circle-up-solid</title>
    <desc>Created with Sketch.</desc>
    <defs></defs>
    <g id="Layout" stroke="none" stroke-width="1" fill="inherit" fill-rule="evenodd">
        <g id="iPhone-SE-(Individual-Work)-Copy" transform="translate(-171.000000, -515.000000)" fill-rule="nonzero" fill="inherit">
            <g id="arrow-alt-circle-up-solid" transform="translate(171.000000, 515.000000)">
                <path d="M0,8 C0,3.58064516 3.58064516,0 8,0 C12.4193548,0 16,3.58064516 16,8 C16,12.4193548 12.4193548,16 8,16 C3.58064516,16 0,12.4193548 0,8 Z M9.41935484,11.7419355 L9.41935484,8 L11.7064516,8 C12.0516129,8 12.2258065,7.58064516 11.9806452,7.33870968 L8.27419355,3.6516129 C8.12258065,3.5 7.88064516,3.5 7.72903226,3.6516129 L4.01935484,7.33870968 C3.77419355,7.58387097 3.9483871,8 4.29354839,8 L6.58064516,8 L6.58064516,11.7419355 C6.58064516,11.9548387 6.75483871,12.1290323 6.96774194,12.1290323 L9.03225806,12.1290323 C9.24516129,12.1290323 9.41935484,11.9548387 9.41935484,11.7419355 Z" id="Shape"></path>
            </g>
        </g>
    </g>
</svg>